<?xml version="1.0" encoding="iso-8859-1"?>
<!-- Uploaded to: SVG Repo, www.svgrepo.com, Generator: SVG Repo Mixer Tools -->
<svg fill="#000000" height="800px" width="800px" version="1.1" id="Layer_1" xmlns="http://www.w3.org/2000/svg" xmlns:xlink="http://www.w3.org/1999/xlink" 
	 viewBox="0 0 470 470" xml:space="preserve">
<g>
	<g>
		<g>
			<path d="M401.183,68.816C356.805,24.44,297.787,0,235,0S113.195,24.44,68.818,68.816C24.44,113.193,0,172.211,0,235
				c0,62.787,24.44,121.805,68.817,166.183C113.195,445.56,172.213,470,235,470s121.805-24.44,166.183-68.817
				C445.56,356.805,470,297.787,470,235C470,172.211,445.56,113.193,401.183,68.816z M387.04,387.04
				C346.44,427.641,292.444,450,235,450c-57.444,0-111.44-22.359-152.04-62.96C42.359,346.44,20,292.444,20,235
				c0-57.446,22.359-111.442,62.959-152.042C123.56,42.359,177.555,20,235,20s111.44,22.359,152.04,62.958
				C427.641,123.558,450,177.554,450,235C450,292.444,427.641,346.44,387.04,387.04z"/>
			<path d="M345,180h-29.966c-0.015-0.076-0.026-0.151-0.034-0.218V145c0-18.518-10.255-32.704-28.876-39.945
				C273.273,100.058,260.536,100,260,100h-50c-55.14,0-100,44.86-100,100v70c0,55.14,44.86,100,100,100h50
				c55.141,0,100-44.86,100-100v-75C360,185.257,352.272,180,345,180z M340,270c0,44.112-35.888,80-80,80h-50
				c-44.112,0-80-35.888-80-80v-70c0-44.112,35.888-80,80-80h49.971c0.099,0.001,9.946,0.102,19.317,3.858
				C293.371,129.502,295,138.627,295,145v35c0,9.695,7.01,20,20,20h25V270z"/>
			<path d="M190,210h55c13.785,0,25-11.215,25-25c0-13.785-11.215-25-25-25h-55c-13.785,0-25,11.215-25,25
				C165,198.785,176.215,210,190,210z M190,180h55c2.757,0,5,2.243,5,5s-2.243,5-5,5h-55c-2.757,0-5-2.243-5-5S187.243,180,190,180z
				"/>
			<path d="M285,250H185c-13.785,0-25,11.215-25,25c0,13.785,11.215,25,25,25h100c13.785,0,25-11.215,25-25
				C310,261.215,298.785,250,285,250z M285,280H185c-2.757,0-5-2.243-5-5c0-2.757,2.243-5,5-5h100c2.757,0,5,2.243,5,5
				C290,277.757,287.757,280,285,280z"/>
		</g>
	</g>
</g>
</svg>